<?xml version="1.0" encoding="UTF-8"?> <!-- Generator: Adobe Illustrator 19.0.0, SVG Export Plug-In . SVG Version: 6.00 Build 0) --> <svg xmlns="http://www.w3.org/2000/svg" xmlns:xlink="http://www.w3.org/1999/xlink" version="1.1" id="Layer_1" x="0px" y="0px" viewBox="0 0 812.8 198.6" style="enable-background:new 0 0 812.8 198.6;" xml:space="preserve"> <style type="text/css"> .st0{fill:#F7A800;} </style> <g id="XMLID_29_"> <g> <path d="M417.9,71.8h-8c-1.6-5-4.5-7.4-8.8-7.4c-4.7,0-8.1,3-8.1,7.5c0,5,3.1,6.6,9.2,8.2c4.5,1.2,9,1.8,13.1,5.4 c3.4,3,5,6.9,5,12c0,4.8-2,9.3-5.6,12.4c-3.3,2.9-7.5,4.5-11.8,4.5c-4.3,0-8.1-1.4-11.7-4.3v3.1h-7.1V97h8.2 c0.5,5.7,4.5,9.2,10.2,9.2c5.7,0,9.7-4,9.7-9.2c0-5.4-3.7-7.2-10.7-9c-4.7-1.2-8.9-1.6-12.4-5.2c-2.7-2.7-4.1-6.3-4.1-10.3 c0-8.7,6.9-15.5,15.5-15.5c3.8,0,7.1,1.3,10.4,3.8v-2.7h6.9V71.8z"></path> <path d="M430.6,78.4H424v-7.1h6.6V58.1h7.5v13.2h6.1v7.1h-6.1v27.7h6.1v7.2h-13.7V78.4z"></path> <path d="M497.7,106.1v7.2h-13.3V108c-3.7,4.2-8.5,6.2-14.4,6.2c-5.9,0-11-2.2-15.2-6.3c-4.2-4.2-6.5-9.6-6.5-15.6 c0-5.9,2.3-11.4,6.5-15.6c4.3-4.3,9.2-6.2,15.6-6.2c5.9,0,10.3,1.8,14,6v-5.2h13.4v7.1h-5.8v27.7H497.7z M470.3,77.7 c-7.8,0-14.1,6.4-14.1,14.7c0,8.2,6.4,14.6,14.1,14.6c8.3,0,14.2-6.1,14.2-14.6C484.5,83.9,478.6,77.7,470.3,77.7z"></path> <path d="M509.4,78.4h-5.9v-7.1h13.1v6.1c2.7-4.6,6.8-6.8,12.4-6.8c4.7,0,8.8,1.7,11.6,4.5c4.1,4.1,4.9,8.2,4.9,14.4v16.6h6v7.2 h-19.3v-7.2h5.7V91.6c0-9.5-2.3-13.8-10.2-13.8c-6.9,0-10.9,4.8-10.9,14v14.3h5.7v7.2h-19.3v-7.2h6.1V78.4z"></path> <path d="M575.9,114.2c-5.9,0-11-2.2-15.2-6.3c-4.2-4.2-6.5-9.6-6.5-15.6c0-6,2.3-11.4,6.5-15.6c4.2-4.1,9.3-6.3,15.2-6.3 c6.1,0,10.7,1.9,14.4,6.1V65.2H584v-7.1h13.8v48h5.8v7.2h-13.3V108C586.6,112.2,581.9,114.2,575.9,114.2z M576.2,106.9 c8.3,0,14.2-6.1,14.2-14.6c0-8.5-5.9-14.7-14.2-14.7c-7.8,0-14.1,6.4-14.1,14.7C562.1,100.6,568.4,106.9,576.2,106.9z"></path> <path d="M656.7,106.1v7.2h-13.3V108c-3.7,4.2-8.5,6.2-14.4,6.2c-5.9,0-11-2.2-15.2-6.3c-4.2-4.2-6.5-9.6-6.5-15.6 c0-5.9,2.3-11.4,6.5-15.6c4.3-4.3,9.2-6.2,15.6-6.2c5.9,0,10.3,1.8,14,6v-5.2h13.4v7.1h-5.8v27.7H656.7z M629.2,77.7 c-7.8,0-14.1,6.4-14.1,14.7c0,8.2,6.4,14.6,14.1,14.6c8.3,0,14.2-6.1,14.2-14.6C643.5,83.9,637.5,77.7,629.2,77.7z"></path> <path d="M668.3,78.4h-5.8v-7.1h13.1v6.6c2.5-5,6.2-7.1,11.7-7.3v8.6c-7.9,0-11.5,4.4-11.5,13.7v13.1h5.7v7.2h-19.3v-7.2h6.1V78.4z "></path> <path d="M711.8,114.2c-5.9,0-11-2.2-15.2-6.3c-4.2-4.2-6.5-9.6-6.5-15.6c0-6,2.3-11.4,6.5-15.6c4.2-4.1,9.3-6.3,15.2-6.3 c6.1,0,10.7,1.9,14.4,6.1V65.2h-6.3v-7.1h13.8v48h5.8v7.2h-13.3V108C722.5,112.2,717.8,114.2,711.8,114.2z M712.1,106.9 c8.3,0,14.2-6.1,14.2-14.6c0-8.5-5.9-14.7-14.2-14.7c-7.8,0-14.1,6.4-14.1,14.7C698,100.6,704.3,106.9,712.1,106.9z"></path> </g> <g> <path d="M404.3,187.9v7.4h-20.9v-7.4h6.4v-40.6h-6.4v-7.2h18.7l16,42.7l16-42.7h18.7v7.2h-6.4v40.6h6.4v7.4h-20.9v-7.4h6.9v-40.5 l-17.9,47.9h-5.7l-17.9-47.9v40.5H404.3z"></path> <path d="M478.9,196.4c-5.9,0-11.4-2.3-15.6-6.4c-4.2-4.2-6.5-9.7-6.5-15.6c0-5.9,2.3-11.4,6.5-15.6c4.2-4.2,9.7-6.4,15.6-6.4 c7.5,0,14.2,3.6,18.3,9.8c2.5,3.7,3.7,7.8,3.7,12.2c0,1-0.1,2-0.2,3h-35.8c1.7,7.2,7.4,11.7,14,11.7c4.9,0,9.1-2.4,12.1-7h8.6 C496.1,191,488.1,196.4,478.9,196.4z M492.5,170.2c-1.9-6.6-7.2-10.6-13.6-10.6c-6.4,0-11.5,3.9-13.7,10.6H492.5z"></path> <path d="M527.8,196.4c-5.9,0-11.4-2.3-15.6-6.4c-4.2-4.2-6.5-9.7-6.5-15.6c0-5.9,2.3-11.4,6.5-15.6c4.3-4.2,9.7-6.4,15.9-6.4 c5.6,0,10,1.9,12.7,5.5v-4.5h6.8v14.1h-7.1c-3-5-7.4-7.7-12.7-7.7c-7.8,0-14.2,6.5-14.2,14.7s6.4,14.6,14.2,14.6 c5.1,0,9.6-2.6,12.5-7.7h8.5C545.8,190.3,537.4,196.4,527.8,196.4z"></path> <path d="M558.3,147.2h-5.8v-7.1h13.4V159c2.6-4.1,6.5-6.4,12.1-6.4c4.7,0,8.8,1.7,11.6,4.5c4.1,4.1,4.9,8.2,4.9,14.4v16.6h6.1v7.2 h-19.3v-7.2h5.7v-14.4c0-9.5-2.3-13.8-10.2-13.8c-6.9,0-10.9,4.8-10.9,14v14.3h5.7v7.2h-19.3v-7.2h6.1V147.2z"></path> <path d="M652.5,188.1v7.2h-13.3V190c-3.7,4.2-8.5,6.2-14.4,6.2c-5.9,0-11-2.2-15.2-6.3c-4.2-4.2-6.5-9.6-6.5-15.6 c0-5.9,2.3-11.4,6.5-15.6c4.3-4.3,9.2-6.2,15.6-6.2c5.9,0,10.3,1.8,14,6v-5.2h13.4v7.1h-5.8v27.7H652.5z M625.1,159.7 c-7.8,0-14.1,6.4-14.1,14.7c0,8.2,6.4,14.6,14.1,14.6c8.3,0,14.2-6.1,14.2-14.6C639.3,165.9,633.4,159.7,625.1,159.7z"></path> <path d="M664.3,160.4h-5.9v-7.1h13.1v6.1c2.7-4.6,6.8-6.8,12.4-6.8c4.7,0,8.8,1.7,11.6,4.5c4.1,4.1,4.9,8.2,4.9,14.4v16.6h6v7.2 h-19.3v-7.2h5.7v-14.4c0-9.5-2.3-13.8-10.2-13.8c-6.9,0-10.9,4.8-10.9,14v14.3h5.7v7.2h-19.3v-7.2h6.1V160.4z"></path> <path d="M717.2,160.4h-5.9v-7.1h13.4v34.8h5.7v7.2h-19.3v-7.2h6.1V160.4z M717.1,140.1h7.6v9.2h-7.6V140.1z"></path> <path d="M756,196.4c-5.9,0-11.4-2.3-15.6-6.4c-4.2-4.2-6.5-9.7-6.5-15.6c0-5.9,2.3-11.4,6.5-15.6c4.3-4.2,9.7-6.4,15.9-6.4 c5.6,0,10,1.9,12.7,5.5v-4.5h6.8v14.1h-7.1c-3-5-7.4-7.7-12.7-7.7c-7.8,0-14.2,6.5-14.2,14.7s6.4,14.6,14.2,14.6 c5.1,0,9.6-2.6,12.5-7.7h8.5C774.1,190.3,765.6,196.4,756,196.4z"></path> <path d="M790.9,181.7c0,0.1,0,0.1,0,0.2c0,4.4,3,7.5,7.1,7.5c4.4,0,7-2.2,7-5.6c0-3.7-2-5.1-6.7-6.4c-4.7-1.4-8.1-2.2-9.8-3.3 c-3.7-2.3-5.4-5.4-5.4-9.6c0-7.1,5.2-12.2,12.6-12.2c3.2,0,5.9,1.1,8.2,3.3v-2.3h6.4v10.9h-7.3c-0.5-3.3-2.8-5.4-6.4-5.4 c-3.7,0-6,2.3-6,5.1c0,4.6,4.3,4.6,11.4,6.9c7.4,2.4,10.6,5.7,10.6,12.4c0,7.5-5.5,13-13.6,13c-3.9,0-6.8-1.1-9.3-3.7v2.7h-7 v-13.6H790.9z"></path> </g> <path id="XMLID_4_" class="st0" d="M27.8,122.6c-27.9-27.9-27.9-73.2,0-101.1c27.9-27.9,73.2-27.9,101.1,0L27.8,122.6z"></path> <path id="XMLID_3_" class="st0" d="M101.1,76c27.9,27.9,27.9,73.2,0,101.1C73.2,205,27.9,205,0,177.1L101.1,76z"></path> <polygon id="XMLID_2_" class="st0" points="239.9,195.3 143.8,195.3 191.8,4 "></polygon> <polygon id="XMLID_1_" class="st0" points="347.3,195.3 251.2,195.3 299.3,4 "></polygon> </g> </svg> 